<svg width="16" height="16" viewBox="0 0 128 128" xmlns="http://www.w3.org/2000/svg">
  <rect width="128" height="128" rx="28" fill="#F5F1EB"/>
  <rect x="36" y="26" width="58" height="74" rx="5" fill="rgba(174,86,48,0.07)"/>
  <rect x="33" y="23" width="58" height="74" rx="5" fill="rgba(174,86,48,0.10)"/>
  <rect x="30" y="20" width="58" height="74" rx="5" fill="#FDFAF7"/>
  <rect x="30" y="20" width="58" height="74" rx="5" fill="none" stroke="rgba(174,86,48,0.15)" stroke-width="1"/>
  <rect x="40" y="36" width="36" height="3"   rx="1.5"  fill="rgba(174,86,48,0.22)"/>
  <rect x="40" y="45" width="28" height="2.5" rx="1.25" fill="rgba(174,86,48,0.15)"/>
  <rect x="40" y="53" width="32" height="2.5" rx="1.25" fill="rgba(174,86,48,0.15)"/>
  <rect x="40" y="61" width="24" height="2.5" rx="1.25" fill="rgba(174,86,48,0.12)"/>
  <rect x="40" y="69" width="30" height="2.5" rx="1.25" fill="rgba(174,86,48,0.12)"/>
  <path d="M66 20 L66 54 L72.5 48 L79 54 L79 20 Z" fill="#AE5630"/>
</svg>
