<svg width="128" height="128" viewBox="0 0 128 128" xmlns="http://www.w3.org/2000/svg">
  <rect width="128" height="128" rx="28" fill="#2d2d2d"/>
  <rect x="36" y="26" width="58" height="74" rx="5" fill="rgba(255,255,255,0.12)"/>
  <rect x="33" y="23" width="58" height="74" rx="5" fill="rgba(255,255,255,0.18)"/>
  <rect x="30" y="20" width="58" height="74" rx="5" fill="rgba(245,245,245,0.94)"/>
  <rect x="40" y="36" width="36" height="3" rx="1.5" fill="rgba(48,48,48,0.32)"/>
  <rect x="40" y="45" width="28" height="2.5" rx="1.25" fill="rgba(48,48,48,0.22)"/>
  <rect x="40" y="53" width="32" height="2.5" rx="1.25" fill="rgba(48,48,48,0.22)"/>
  <rect x="40" y="61" width="24" height="2.5" rx="1.25" fill="rgba(48,48,48,0.18)"/>
  <rect x="40" y="69" width="30" height="2.5" rx="1.25" fill="rgba(48,48,48,0.18)"/>
  <path d="M66 20 L66 54 L72.5 48 L79 54 L79 20 Z" fill="#2d2d2d"/>
  <rect x="82" y="82" width="30" height="30" rx="10" fill="#AE5630"/>
  <path fill-rule="evenodd" d="M92 89H98.5C107 89 113 95 113 103C113 111 107 117 98.5 117H92V89ZM98 95H99C103.4 95 106 97.7 106 103C106 108.3 103.4 111 99 111H98V95Z" fill="#FFF8F2"/>
</svg>
